<?xml version="1.0" encoding="UTF-8" standalone="no"?>
<svg
   xmlns:dc="http://purl.org/dc/elements/1.1/"
   xmlns:cc="http://creativecommons.org/ns#"
   xmlns:rdf="http://www.w3.org/1999/02/22-rdf-syntax-ns#"
   xmlns:svg="http://www.w3.org/2000/svg"
   xmlns="http://www.w3.org/2000/svg"
   xmlns:sodipodi="http://sodipodi.sourceforge.net/DTD/sodipodi-0.dtd"
   xmlns:inkscape="http://www.inkscape.org/namespaces/inkscape"
   version="1.1"
   id="svg2"
   width="161.98"
   height="113.38652"
   viewBox="0 0 161.98 113.38652"
   sodipodi:docname="youtube.svg"
   inkscape:version="0.92.4 (5da689c313, 2019-01-14)">
  <metadata
     id="metadata3743">
    <rdf:RDF>
      <cc:Work
         rdf:about="">
        <dc:format>image/svg+xml</dc:format>
        <dc:type
           rdf:resource="http://purl.org/dc/dcmitype/StillImage" />
        <dc:title></dc:title>
      </cc:Work>
    </rdf:RDF>
  </metadata>
  <defs
     id="defs6" />
  <sodipodi:namedview
     id="namedview4"
     pagecolor="#ffffff"
     bordercolor="#000000"
     borderopacity="0.25"
     inkscape:showpageshadow="2"
     inkscape:pageopacity="0.0"
     inkscape:pagecheckerboard="0"
     inkscape:deskcolor="#d1d1d1"
     showgrid="false"
     inkscape:zoom="2.4503332"
     inkscape:cx="278.94102"
     inkscape:cy="36.456339"
     inkscape:window-width="1920"
     inkscape:window-height="991"
     inkscape:window-x="-9"
     inkscape:window-y="-9"
     inkscape:window-maximized="1"
     inkscape:current-layer="g8"
     fit-margin-top="0"
     fit-margin-left="0"
     fit-margin-right="0"
     fit-margin-bottom="0" />
  <g
     id="g8"
     inkscape:groupmode="layer"
     inkscape:label="ink_ext_XXXXXX"
     transform="matrix(1.3333333,0,0,-1.3333333,0,113.386)">
    <path
       inkscape:connector-curvature="0"
       id="path12"
       style="fill:#ed1d24;fill-opacity:1;fill-rule:nonzero;stroke:none;stroke-width:0.1"
       d="m 118.946,71.7605 c -1.397,5.2266 -5.513,9.3434 -10.74,10.7403 -9.4744,2.5387 -47.4638,2.5387 -47.4638,2.5387 0,0 -37.9891,0 -47.4633,-2.5387 C 8.05234,81.1039 3.93555,76.9871 2.53867,71.7605 0,62.2863 0,42.5199 0,42.5199 c 0,0 0,-19.7672 2.53867,-29.241 C 3.93555,8.05273 8.05234,3.93555 13.2789,2.53906 22.7531,-3.90625e-4 60.7422,-3.90625e-4 60.7422,-3.90625e-4 c 0,0 37.9894,0 47.4638,2.539450625 5.227,1.39649 9.343,5.51367 10.74,10.73984 2.539,9.4738 2.539,29.241 2.539,29.241 0,0 0,19.7664 -2.539,29.2406" />
    <path
       inkscape:connector-curvature="0"
       id="path14"
       style="fill:#ffffff;fill-opacity:1;fill-rule:nonzero;stroke:none;stroke-width:0.1"
       d="M 48.5938,24.2969 80.1555,42.5195 48.5938,60.7426 Z" />
  </g>
</svg>
