<?xml version="1.0" encoding="UTF-8" standalone="no"?>
<svg
   xmlns:dc="http://purl.org/dc/elements/1.1/"
   xmlns:cc="http://creativecommons.org/ns#"
   xmlns:rdf="http://www.w3.org/1999/02/22-rdf-syntax-ns#"
   xmlns:svg="http://www.w3.org/2000/svg"
   xmlns="http://www.w3.org/2000/svg"
   xmlns:sodipodi="http://sodipodi.sourceforge.net/DTD/sodipodi-0.dtd"
   xmlns:inkscape="http://www.inkscape.org/namespaces/inkscape"
   width="275.63101"
   height="339.35211"
   viewBox="0 0 72.927444 89.786881"
   version="1.1"
   id="svg18"
   sodipodi:docname="paypal.svg"
   inkscape:version="0.92.4 (5da689c313, 2019-01-14)">
  <metadata
     id="metadata24">
    <rdf:RDF>
      <cc:Work
         rdf:about="">
        <dc:format>image/svg+xml</dc:format>
        <dc:type
           rdf:resource="http://purl.org/dc/dcmitype/StillImage" />
        <dc:title></dc:title>
      </cc:Work>
    </rdf:RDF>
  </metadata>
  <defs
     id="defs22" />
  <sodipodi:namedview
     pagecolor="#ffffff"
     bordercolor="#666666"
     borderopacity="1"
     objecttolerance="10"
     gridtolerance="10"
     guidetolerance="10"
     inkscape:pageopacity="0"
     inkscape:pageshadow="2"
     inkscape:window-width="1920"
     inkscape:window-height="991"
     id="namedview20"
     showgrid="false"
     fit-margin-top="0"
     fit-margin-left="0"
     fit-margin-right="0"
     fit-margin-bottom="0"
     inkscape:zoom="0.26484375"
     inkscape:cx="640.00034"
     inkscape:cy="169.67983"
     inkscape:window-x="-9"
     inkscape:window-y="-9"
     inkscape:window-maximized="1"
     inkscape:current-layer="svg18" />
  <path
     style="fill:#001c64"
     inkscape:connector-curvature="0"
     id="path10"
     d="m 28.528089,17.95494 a 2.59,2.59 0 0 0 -2.556,2.185 l -4.247,26.936 c 0.198,-1.258 1.282,-2.185 2.556,-2.185 h 12.445 c 12.525,0 23.153,-9.137 25.095,-21.519 a 20.76,20.76 0 0 0 0.245,-2.793 c -3.183,-1.669 -6.922,-2.624 -11.019,-2.624 z"
     clip-path="none" />
  <path
     style="fill:#0070e0"
     inkscape:connector-curvature="0"
     id="path12"
     d="m 62.066089,20.57994 a 20.76,20.76 0 0 1 -0.245,2.793 c -1.942,12.382 -12.571,21.519 -25.095,21.519 h -12.445 c -1.273,0 -2.358,0.926 -2.556,2.185 l -3.905,24.752 -2.446,15.528 a 2.1,2.1 0 0 0 2.075,2.43 h 13.508 a 2.59,2.59 0 0 0 2.556,-2.185 l 3.558,-22.567 a 2.59,2.59 0 0 1 2.558,-2.185 h 7.953 c 12.525,0 23.153,-9.137 25.095,-21.519 1.379,-8.788 -3.047,-16.784 -10.611,-20.75 z"
     clip-path="none" />
  <path
     style="fill:#003087"
     inkscape:connector-curvature="0"
     id="path14"
     d="m 13.182089,-5.9972036e-5 c -1.273,0 -2.358,0.926000002036 -2.556,2.182999972036 l -10.6000002,67.216 c -0.201,1.276 0.785,2.43 2.077,2.43 H 17.822089 l 3.903,-24.752 4.247,-26.936 a 2.59,2.59 0 0 1 2.556,-2.185 h 22.519 c 4.098,0 7.836,0.956 11.019,2.624 0.218,-11.273 -9.084,-20.579999972036 -21.873,-20.579999972036 z"
     clip-path="none" />
</svg>
